# xmcd
#
# Track frame offsets: 
#        150
#        21639
#        41206
#        59538
#        78013
#        96048
#        114629
#        132441
#        148614
#        166060
#        184034
#        200570
#        221569
#        245799
#        270051
#        290239
#        309839
#        329079
#        345605
#
# Disc length: 4829 seconds
#
# Revision: 6
# Processed by: cddbd v1.5.2PL0 Copyright (c) Steve Scherf et al.
# Submitted via: ExactAudioCopy v0.95b3
#
DISCID=2512db13
DTITLE=Mary J. Blige - The Breakthrough
DYEAR=2005
DGENRE=R&B
TTITLE0=No One Will Do
TTITLE1=Enough Cryin (Feat. Brook)
TTITLE2=About You (Feat. Will.I.Am and Nina Simone)
TTITLE3=Be Without You
TTITLE4=Gonna Breakthrough (Feat. Brook)
TTITLE5=Good Woman Down
TTITLE6=Take Me As I Am
TTITLE7=Baggage
TTITLE8=Can't Hide From Luv (Feat. Jay-Z)
TTITLE9=MJB Da MVP
TTITLE10=Can't Get Enough
TTITLE11=Ain't Really Love
TTITLE12=I Found My Everything (Feat. Raphael Saadiq)
TTITLE13=Father In You
TTITLE14=Alone (Feat. Dave Young)
TTITLE15=One (With U2)
TTITLE16=So Lady (Feat Raphael Saadiq)
TTITLE17=Show Love (Bonus Track)
TTITLE18=Out My Head
EXTD=YEAR: 2005
EXTT0=
EXTT1=
EXTT2=
EXTT3=
EXTT4=
EXTT5=
EXTT6=
EXTT7=
EXTT8=
EXTT9=
EXTT10=
EXTT11=
EXTT12=
EXTT13=
EXTT14=
EXTT15=
EXTT16=
EXTT17=
EXTT18=
PLAYORDER=
